<svg width="42" height="207" viewBox="0 0 42 207" fill="none" xmlns="http://www.w3.org/2000/svg">
<path d="M36.224 13.24C36.992 13.24 37.648 13.512 38.192 14.056C38.736 14.568 38.992 15.192 38.96 15.928C38.704 23.288 36.304 28.92 31.76 32.824C27.248 36.728 20.304 39.032 10.928 39.736C10.16 39.768 9.472 39.544 8.864 39.064C8.288 38.584 7.92 37.96 7.76 37.192L7.28 34.408C7.152 33.704 7.312 33.08 7.76 32.536C8.208 31.96 8.8 31.64 9.536 31.576C14.944 31.16 19.152 30.168 22.16 28.6C25.2 27 27.296 24.728 28.448 21.784C28.512 21.528 28.432 21.4 28.208 21.4H3.056C2.32 21.4 1.68 21.128 1.136 20.584C0.592 20.04 0.32 19.4 0.32 18.664V15.976C0.32 15.24 0.592 14.6 1.136 14.056C1.68 13.512 2.32 13.24 3.056 13.24H36.224ZM6.416 0.519998H33.584C34.32 0.519998 34.96 0.791998 35.504 1.336C36.048 1.88 36.32 2.52 36.32 3.256V5.944C36.32 6.68 36.048 7.32 35.504 7.864C34.96 8.408 34.32 8.68 33.584 8.68H6.416C5.68 8.68 5.04 8.408 4.496 7.864C3.952 7.32 3.68 6.68 3.68 5.944V3.256C3.68 2.52 3.952 1.88 4.496 1.336C5.04 0.791998 5.68 0.519998 6.416 0.519998ZM22.0589 57C22.7949 57 23.4349 57.272 23.9789 57.816C24.5229 58.36 24.7949 59 24.7949 59.736V90.264C24.7949 91 24.5229 91.64 23.9789 92.184C23.4349 92.728 22.7949 93 22.0589 93H17.9309C17.1949 93 16.5549 92.728 16.0109 92.184C15.4669 91.64 15.1949 91 15.1949 90.264V59.736C15.1949 59 15.4669 58.36 16.0109 57.816C16.5549 57.272 17.1949 57 17.9309 57H22.0589ZM29.12 131.576C33.12 134.936 36.272 137.656 38.576 139.736C39.12 140.248 39.424 140.888 39.488 141.656C39.552 142.392 39.328 143.048 38.816 143.624L36.368 146.456C35.888 147.032 35.264 147.352 34.496 147.416C33.76 147.448 33.12 147.208 32.576 146.696C29.6 143.976 26.528 141.288 23.36 138.632C23.136 138.44 22.928 138.472 22.736 138.728C18.416 143.24 13.328 147.176 7.472 150.536C6.8 150.92 6.08 151.032 5.312 150.872C4.544 150.712 3.936 150.312 3.488 149.672L1.136 146.408C0.72 145.8 0.576 145.144 0.704 144.44C0.864 143.736 1.264 143.192 1.904 142.808C7.152 139.608 11.552 136.152 15.104 132.44C15.296 132.28 15.296 132.104 15.104 131.912C11.872 129.384 8.784 127.048 5.84 124.904C5.232 124.456 4.88 123.88 4.784 123.176C4.688 122.44 4.88 121.784 5.36 121.208L7.664 118.472C8.144 117.864 8.752 117.512 9.488 117.416C10.256 117.32 10.96 117.496 11.6 117.944C14.608 120.12 17.664 122.424 20.768 124.856C20.832 124.92 20.928 124.952 21.056 124.952C21.184 124.92 21.264 124.856 21.296 124.76C23.568 121.336 25.456 117.624 26.96 113.624C27.216 112.92 27.696 112.376 28.4 111.992C29.104 111.576 29.824 111.448 30.56 111.608L34.544 112.472C35.28 112.632 35.84 113.016 36.224 113.624C36.608 114.232 36.688 114.888 36.464 115.592C34.768 120.968 32.288 126.088 29.024 130.952C28.832 131.176 28.864 131.384 29.12 131.576ZM4.064 177.304C3.392 176.984 2.944 176.488 2.72 175.816C2.496 175.112 2.56 174.44 2.912 173.8L4.64 170.44C4.992 169.768 5.536 169.304 6.272 169.048C7.008 168.792 7.728 168.824 8.432 169.144C11.888 170.712 15.296 172.344 18.656 174.04C19.328 174.36 19.76 174.872 19.952 175.576C20.144 176.28 20.064 176.952 19.712 177.592L17.84 181.048C17.488 181.72 16.944 182.168 16.208 182.392C15.472 182.616 14.768 182.552 14.096 182.2C10.352 180.312 7.008 178.68 4.064 177.304ZM38.816 174.184C39.552 174.344 40.128 174.744 40.544 175.384C40.96 176.024 41.088 176.712 40.928 177.448C39.008 185.992 35.264 192.616 29.696 197.32C24.128 202.024 16.464 204.968 6.704 206.152C5.936 206.248 5.248 206.056 4.64 205.576C4.064 205.128 3.712 204.52 3.584 203.752L3.008 200.248C2.88 199.544 3.04 198.888 3.488 198.28C3.936 197.672 4.528 197.32 5.264 197.224C13.04 196.136 19.024 193.896 23.216 190.504C27.408 187.112 30.4 182.088 32.192 175.432C32.384 174.696 32.8 174.136 33.44 173.752C34.08 173.368 34.752 173.256 35.456 173.416L38.816 174.184Z" fill="#FFC024"/>
</svg>
